<?xml version="1.0" standalone="no"?>
<!DOCTYPE svg PUBLIC "-//W3C//DTD SVG 20010904//EN"
 "http://www.w3.org/TR/2001/REC-SVG-20010904/DTD/svg10.dtd">
<svg version="1.0" xmlns="http://www.w3.org/2000/svg"
 width="187.000000pt" height="145.000000pt" viewBox="0 0 187.000000 145.000000"
 preserveAspectRatio="xMidYMid meet">

<g transform="translate(0.000000,145.000000) scale(0.100000,-0.100000)"
fill="#000000" stroke="none">
<path d="M918 1354 c-14 -22 -64 -106 -113 -189 -48 -82 -99 -167 -112 -188
-13 -22 -22 -46 -19 -54 4 -9 49 -88 100 -177 214 -368 374 -644 396 -683 l24
-43 274 0 274 0 -14 22 c-8 13 -94 161 -192 331 -99 169 -183 307 -188 307 -9
0 -98 -49 -98 -55 0 -1 57 -103 126 -226 70 -123 129 -230 131 -237 4 -10 -14
-12 -87 -10 l-92 3 -234 398 c-129 219 -234 404 -234 411 0 16 80 156 89 156
3 0 28 -39 55 -88 28 -48 51 -89 53 -91 2 -3 98 44 112 55 2 2 -14 34 -37 71
-22 37 -74 126 -115 197 l-75 129 -24 -39z"/>
<path d="M460 583 c-203 -343 -311 -527 -321 -545 -9 -17 8 -18 296 -18 l305
0 0 70 0 70 -184 2 -184 3 84 140 c47 77 94 155 105 174 l21 35 17 -30 c10
-16 76 -127 146 -246 l127 -218 79 0 c43 0 79 2 79 4 0 6 -431 749 -440 759
-4 4 -62 -86 -130 -200z"/>
</g>
</svg>
